<?xml version="1.0" encoding="UTF-8"?>
<svg id="Calque_1" data-name="Calque 1" xmlns="http://www.w3.org/2000/svg" viewBox="0 0 915.71 347.85">
  <defs>
    <style>
      .cls-1 {
        font-family: Impact, Impact;
        font-size: 213.33px;
      }

      .cls-1, .cls-2 {
        fill: #2563eb;
      }
    </style>
  </defs>
  <path class="cls-2" d="M108.6,292.52c-3.48-7.72-12.71-9.03-20.14-7.1-10.7,2.78-21.17,4.45-32.16,4.27-13.48-.23-19.27-10.43-20.36-21.88-.41-4.33-2.3-8.39-5.52-11.32s-5.23-6.27-6.13-10.28c-.69-3.11-2.03-6.06-4.18-8.42-3.11-3.42-4.34-6.88-4.08-10.73.44-6.58-2.48-12.87-7.95-16.55-1.64-1.1-3.12-2.34-4.39-3.74-5.27-5.82-4.66-12.55.36-17.9l10.15-10.81c6.74-7.18,9.62-17.18,7.64-26.82-.89-4.34-2.01-8.63-3.01-13.13-8.4-37.84-6.95-66.07,20.81-94.71,18.31-18.89,42.52-28.34,67.95-31.1,11.93-1.3,23.36-5.06,34.06-10.47,3.23-1.63,6.96-2.22,10.84-1.52,8.11,1.45,14.67,8.61,14.74,17.15.04,4.59-1.59,8.87-4.53,12.15-3.46,3.86-8.6,5.78-13.78,5.55l-.43-.02c-5.1-.23-9.98-2.55-13.08-6.61-.04-.05-.08-.1-.12-.16-4-5.37-10.25-8.59-16.94-8.35-34.88,1.26-68.58,15.46-86.57,47.32-16.63,29.44-7.32,55.78-1,86.54,1.53,7.44,1.43,14.25-3.02,20.49-5.01,7.02-10.66,13.1-17.12,19.08-1.15,1.06-2.45,3.58-2.38,4.92.44,8.22,17.92,7.87,19.77,14.63,2.04,7.45-5.42,9.02-3.42,17.03,1.11,4.45,10.63,4.2,8.62,9.32-2.26,5.78.39,10.54,5.54,13.09,9.37,4.64,1.55,13.57,8.58,24.77,5.52,8.79,31.82,2,41.18-.11,12.13-2.74,22.58,2.21,29.19,14.27"/>
  <path class="cls-2" d="M233.16,111.61c2.62,7.59,2.88,15.67-2.77,21.2-6.37,6.23-15.43,6.07-21.71,1.32-7.11-5.37-7.87-14.41-3.86-21.45,4.31-7.56,13.59-9.88,21.78-6.23l27.47-30.12-1.17-8.91-21.51-13.99c-9.03,9.46-22.94,10.45-33.16,3.04-10.47-7.59-12.86-21.7-6.3-32.68,6.5-10.86,20.25-14.86,31.78-9.35,11.69,5.58,17.13,18.95,12.07,31.85l21.8,14.12c5.38-3.9,11.7-3.2,16.04.52,4.75,4.06,4.86,10.2,2.26,15.55s-8.96,6.78-15.3,5.4l-27.45,29.76Z"/>
  <path class="cls-2" d="M263.55,208.69c7.66-.02,12.77,3.93,14.59,10.22,1.69,5.83-1.43,11.9-7.14,14.73s-12,1.06-16.19-3.95c-4.29-5.13-2.57-11.79,1.22-17.84l-18.54-39.2c-5.7-1.09-11.24-3.65-12.1-9.36-.77-5.15,1.48-10.63,6.95-12.95,4.4-1.87,10.3-.71,13.61,4.08,2.8,4.05,3,9.85-1.14,14.31l18.75,39.96Z"/>
  <g>
    <path class="cls-2" d="M243.68,346.17c-.94,4.44-33.41,1.44-46.98-25.71-8.9-17.8-6.66-37.89,5.56-53.79l-57.2-122.39c-19.26-.84-35.92-11.69-43.93-28.11-13.47-27.61,3.59-54.56,8.8-54.98.71-.06,2.2,1.22,2.58,1.98l15.64,31.9c1.49,3.04,7.76,4.05,10.37,2.81l15.2-7.25c4.69-2.24,5.5-8.55,3.45-12.96l-13.53-29.01c.08-.08.14-2.71.14-3.45.02-4.88,34.09.36,47.01,26.86,8.47,17.37,6.46,37.47-5.82,53.25l57.31,122.7c19.26.47,35.94,11.71,43.79,27.89,13.68,28.19-4.19,54.74-8.6,54.87-.96.03-2.62-1.47-3.06-2.4l-13.69-29.22c-2.3-4.9-8.35-6.7-13.06-4.48l-13.41,6.32c-4.51,2.12-6.67,8.06-4.49,12.74l13.74,29.52c.33.71.33,2.21.18,2.89Z"/>
    <path class="cls-2" d="M76.96,286.28l-12.53-16.72c-4.47-5.96,13.59-8.58,9.62-23.28-4.02-14.91-20.89-6.28-19.3-17.07l2.51-17.04c1.57-10.67,14.88,2.46,23.2-10.71,8.42-13.33-9.09-20.27-1.99-25.63l14.3-10.78c9.29-7.01,8.48,11.97,24.56,8.58,12.75-2.69,9.43-17.28,13.88-18.93,2.5-.93,7.14-.06,10.14.85l47.57,101.79c-8.01,5.21-9.05,14.88-3.38,21.78.8,10.92-5.22,13.41-15.48,20.47-6.14,4.22-8.35-12.71-22.56-9.72-14.08,2.96-9.42,20.32-15.16,19.56l-20.94-2.77c-7.83-1.03,3.04-15.63-9.85-23.33-12.31-7.36-20.42,8.53-24.61,2.94ZM159.99,237.22c2.23-15.4-8.45-29.68-23.85-31.9-15.4-2.23-29.68,8.45-31.9,23.85-2.23,15.4,8.45,29.68,23.85,31.9,15.4,2.23,29.68-8.45,31.9-23.85Z"/>
  </g>
  <text class="cls-1" transform="translate(294.51 231.54)"><tspan x="0" y="0">TOOL IA</tspan></text>
</svg>